<svg width="141" height="32" viewBox="0 0 141 32" fill="none" xmlns="http://www.w3.org/2000/svg">
<path d="M6 0L16 5H0L6 0Z" fill="#3E1C9E"/>
<path d="M135 0L125 5H141L135 0Z" fill="#3E1C9E"/>
<path d="M6.23204 0H134.768L131.43 22.8085C134.899 26.1401 132.54 32 127.731 32H13.2692C8.45955 32 6.10129 26.1401 9.57014 22.8085L6.23204 0Z" fill="url(#paint0_linear_1_10574)"/>
<path d="M41.02 19C40.9533 19 40.8967 18.9767 40.85 18.93C40.8033 18.8833 40.78 18.8267 40.78 18.76V12.25C40.78 12.1767 40.8033 12.1167 40.85 12.07C40.8967 12.0233 40.9533 12 41.02 12H43.92C44.46 12 44.9 12.0833 45.24 12.25C45.58 12.41 45.83 12.6333 45.99 12.92C46.1567 13.2067 46.24 13.54 46.24 13.92C46.24 14.1733 46.1933 14.3967 46.1 14.59C46.0133 14.7767 45.9033 14.93 45.77 15.05C45.6433 15.17 45.5167 15.2633 45.39 15.33C45.65 15.45 45.88 15.65 46.08 15.93C46.28 16.21 46.38 16.5433 46.38 16.93C46.38 17.33 46.29 17.6867 46.11 18C45.93 18.3133 45.6633 18.56 45.31 18.74C44.9567 18.9133 44.52 19 44 19H41.02ZM42.17 17.94H43.84C44.2 17.94 44.4733 17.8433 44.66 17.65C44.8467 17.45 44.94 17.21 44.94 16.93C44.94 16.6367 44.8433 16.3933 44.65 16.2C44.4633 16.0067 44.1933 15.91 43.84 15.91H42.17V17.94ZM42.17 14.87H43.74C44.0933 14.87 44.3567 14.7867 44.53 14.62C44.71 14.4467 44.8 14.2233 44.8 13.95C44.8 13.67 44.71 13.4533 44.53 13.3C44.3567 13.14 44.0933 13.06 43.74 13.06H42.17V14.87ZM47.8755 19C47.8088 19 47.7521 18.9767 47.7055 18.93C47.6588 18.8833 47.6355 18.8267 47.6355 18.76V12.25C47.6355 12.1767 47.6588 12.1167 47.7055 12.07C47.7521 12.0233 47.8088 12 47.8755 12H52.2755C52.3488 12 52.4088 12.0233 52.4555 12.07C52.5021 12.1167 52.5255 12.1767 52.5255 12.25V12.91C52.5255 12.9767 52.5021 13.0333 52.4555 13.08C52.4088 13.1267 52.3488 13.15 52.2755 13.15H48.9855V14.92H52.0555C52.1288 14.92 52.1888 14.9433 52.2355 14.99C52.2821 15.03 52.3055 15.0867 52.3055 15.16V15.78C52.3055 15.8533 52.2821 15.9133 52.2355 15.96C52.1888 16 52.1288 16.02 52.0555 16.02H48.9855V17.85H52.3555C52.4288 17.85 52.4888 17.8733 52.5355 17.92C52.5821 17.9667 52.6055 18.0267 52.6055 18.1V18.76C52.6055 18.8267 52.5821 18.8833 52.5355 18.93C52.4888 18.9767 52.4288 19 52.3555 19H47.8755ZM56.2862 19.1C55.6662 19.1 55.1462 19.01 54.7262 18.83C54.3128 18.6433 53.9962 18.4033 53.7762 18.11C53.5628 17.81 53.4495 17.4967 53.4362 17.17C53.4362 17.11 53.4562 17.06 53.4962 17.02C53.5362 16.98 53.5862 16.96 53.6462 16.96H54.5362C54.6228 16.96 54.6862 16.98 54.7262 17.02C54.7728 17.0533 54.8128 17.0967 54.8462 17.15C54.8862 17.2767 54.9628 17.4033 55.0762 17.53C55.1895 17.65 55.3428 17.75 55.5362 17.83C55.7362 17.91 55.9862 17.95 56.2862 17.95C56.7662 17.95 57.1228 17.87 57.3562 17.71C57.5962 17.55 57.7162 17.3333 57.7162 17.06C57.7162 16.8667 57.6528 16.7133 57.5262 16.6C57.3995 16.48 57.2028 16.3733 56.9362 16.28C56.6762 16.18 56.3295 16.0767 55.8962 15.97C55.3962 15.85 54.9762 15.7067 54.6362 15.54C54.3028 15.3667 54.0495 15.15 53.8762 14.89C53.7095 14.63 53.6262 14.3 53.6262 13.9C53.6262 13.5133 53.7295 13.17 53.9362 12.87C54.1495 12.57 54.4495 12.3333 54.8362 12.16C55.2295 11.9867 55.6962 11.9 56.2362 11.9C56.6695 11.9 57.0528 11.96 57.3862 12.08C57.7195 12.1933 57.9962 12.3467 58.2162 12.54C58.4362 12.7267 58.6028 12.93 58.7162 13.15C58.8362 13.3633 58.8995 13.5733 58.9062 13.78C58.9062 13.8333 58.8862 13.8833 58.8462 13.93C58.8128 13.97 58.7628 13.99 58.6962 13.99H57.7662C57.7128 13.99 57.6595 13.9767 57.6062 13.95C57.5528 13.9233 57.5095 13.8733 57.4762 13.8C57.4362 13.5933 57.3062 13.4167 57.0862 13.27C56.8662 13.1233 56.5828 13.05 56.2362 13.05C55.8762 13.05 55.5862 13.1167 55.3662 13.25C55.1462 13.3833 55.0362 13.59 55.0362 13.87C55.0362 14.0567 55.0895 14.2133 55.1962 14.34C55.3095 14.46 55.4862 14.5667 55.7262 14.66C55.9728 14.7533 56.2962 14.8533 56.6962 14.96C57.2628 15.0867 57.7262 15.2333 58.0862 15.4C58.4462 15.5667 58.7095 15.78 58.8762 16.04C59.0428 16.2933 59.1262 16.6167 59.1262 17.01C59.1262 17.45 59.0062 17.8267 58.7662 18.14C58.5328 18.4467 58.2028 18.6833 57.7762 18.85C57.3495 19.0167 56.8528 19.1 56.2862 19.1ZM61.9741 19C61.9074 19 61.8507 18.9767 61.8041 18.93C61.7574 18.8833 61.7341 18.8267 61.7341 18.76V13.23H59.8841C59.8174 13.23 59.7607 13.2067 59.7141 13.16C59.6674 13.1133 59.6441 13.0567 59.6441 12.99V12.25C59.6441 12.1767 59.6674 12.1167 59.7141 12.07C59.7607 12.0233 59.8174 12 59.8841 12H64.9841C65.0574 12 65.1174 12.0233 65.1641 12.07C65.2107 12.1167 65.2341 12.1767 65.2341 12.25V12.99C65.2341 13.0567 65.2107 13.1133 65.1641 13.16C65.1174 13.2067 65.0574 13.23 64.9841 13.23H63.1441V18.76C63.1441 18.8267 63.1207 18.8833 63.0741 18.93C63.0274 18.9767 62.9674 19 62.8941 19H61.9741ZM68.5298 19C68.4631 19 68.4064 18.9767 68.3598 18.93C68.3131 18.8833 68.2898 18.8267 68.2898 18.76V12.25C68.2898 12.1767 68.3131 12.1167 68.3598 12.07C68.4064 12.0233 68.4631 12 68.5298 12H71.4298C71.9698 12 72.4098 12.0833 72.7498 12.25C73.0898 12.41 73.3398 12.6333 73.4998 12.92C73.6664 13.2067 73.7498 13.54 73.7498 13.92C73.7498 14.1733 73.7031 14.3967 73.6098 14.59C73.5231 14.7767 73.4131 14.93 73.2798 15.05C73.1531 15.17 73.0264 15.2633 72.8998 15.33C73.1598 15.45 73.3898 15.65 73.5898 15.93C73.7898 16.21 73.8898 16.5433 73.8898 16.93C73.8898 17.33 73.7998 17.6867 73.6198 18C73.4398 18.3133 73.1731 18.56 72.8198 18.74C72.4664 18.9133 72.0298 19 71.5098 19H68.5298ZM69.6798 17.94H71.3498C71.7098 17.94 71.9831 17.8433 72.1698 17.65C72.3564 17.45 72.4498 17.21 72.4498 16.93C72.4498 16.6367 72.3531 16.3933 72.1598 16.2C71.9731 16.0067 71.7031 15.91 71.3498 15.91H69.6798V17.94ZM69.6798 14.87H71.2498C71.6031 14.87 71.8664 14.7867 72.0398 14.62C72.2198 14.4467 72.3098 14.2233 72.3098 13.95C72.3098 13.67 72.2198 13.4533 72.0398 13.3C71.8664 13.14 71.6031 13.06 71.2498 13.06H69.6798V14.87ZM77.8352 19.1C77.2419 19.1 76.7319 19.0033 76.3052 18.81C75.8786 18.61 75.5452 18.3067 75.3052 17.9C75.0652 17.4867 74.9352 16.9733 74.9152 16.36C74.9086 16.0733 74.9052 15.79 74.9052 15.51C74.9052 15.23 74.9086 14.9433 74.9152 14.65C74.9352 14.0433 75.0686 13.5367 75.3152 13.13C75.5619 12.7233 75.8986 12.4167 76.3252 12.21C76.7586 12.0033 77.2619 11.9 77.8352 11.9C78.4086 11.9 78.9119 12.0033 79.3452 12.21C79.7786 12.4167 80.1186 12.7233 80.3652 13.13C80.6119 13.5367 80.7452 14.0433 80.7652 14.65C80.7786 14.9433 80.7852 15.23 80.7852 15.51C80.7852 15.79 80.7786 16.0733 80.7652 16.36C80.7452 16.9733 80.6152 17.4867 80.3752 17.9C80.1352 18.3067 79.7986 18.61 79.3652 18.81C78.9386 19.0033 78.4286 19.1 77.8352 19.1ZM77.8352 17.95C78.2686 17.95 78.6219 17.8233 78.8952 17.57C79.1686 17.31 79.3152 16.89 79.3352 16.31C79.3486 16.0167 79.3552 15.7467 79.3552 15.5C79.3552 15.2467 79.3486 14.9767 79.3352 14.69C79.3219 14.3033 79.2486 13.99 79.1152 13.75C78.9886 13.5033 78.8152 13.3267 78.5952 13.22C78.3752 13.1067 78.1219 13.05 77.8352 13.05C77.5552 13.05 77.3052 13.1067 77.0852 13.22C76.8652 13.3267 76.6886 13.5033 76.5552 13.75C76.4286 13.99 76.3586 14.3033 76.3452 14.69C76.3386 14.9767 76.3352 15.2467 76.3352 15.5C76.3352 15.7467 76.3386 16.0167 76.3452 16.31C76.3652 16.89 76.5119 17.31 76.7852 17.57C77.0586 17.8233 77.4086 17.95 77.8352 17.95ZM82.3384 19C82.2717 19 82.215 18.9767 82.1684 18.93C82.1217 18.8833 82.0984 18.8267 82.0984 18.76V12.25C82.0984 12.1767 82.1217 12.1167 82.1684 12.07C82.215 12.0233 82.2717 12 82.3384 12H83.1084C83.2017 12 83.2684 12.0233 83.3084 12.07C83.355 12.11 83.385 12.14 83.3984 12.16L86.2784 16.64V12.25C86.2784 12.1767 86.2984 12.1167 86.3384 12.07C86.385 12.0233 86.445 12 86.5184 12H87.3584C87.4317 12 87.4917 12.0233 87.5384 12.07C87.585 12.1167 87.6084 12.1767 87.6084 12.25V18.75C87.6084 18.8233 87.585 18.8833 87.5384 18.93C87.4917 18.9767 87.435 19 87.3684 19H86.5884C86.495 19 86.4284 18.9767 86.3884 18.93C86.3484 18.8833 86.3184 18.8533 86.2984 18.84L83.4284 14.46V18.76C83.4284 18.8267 83.405 18.8833 83.3584 18.93C83.3117 18.9767 83.2517 19 83.1784 19H82.3384ZM91.9587 19.1C91.3787 19.1 90.8753 19.0033 90.4487 18.81C90.022 18.61 89.692 18.3067 89.4587 17.9C89.2253 17.4867 89.1087 16.96 89.1087 16.32V12.25C89.1087 12.1767 89.132 12.1167 89.1787 12.07C89.2253 12.0233 89.282 12 89.3487 12H90.2587C90.332 12 90.3887 12.0233 90.4287 12.07C90.4753 12.1167 90.4987 12.1767 90.4987 12.25V16.32C90.4987 16.8667 90.6287 17.2733 90.8887 17.54C91.1487 17.8 91.5053 17.93 91.9587 17.93C92.412 17.93 92.7653 17.8 93.0187 17.54C93.2787 17.2733 93.4087 16.8667 93.4087 16.32V12.25C93.4087 12.1767 93.432 12.1167 93.4787 12.07C93.5253 12.0233 93.5853 12 93.6587 12H94.5587C94.632 12 94.6887 12.0233 94.7287 12.07C94.7753 12.1167 94.7987 12.1767 94.7987 12.25V16.32C94.7987 16.96 94.682 17.4867 94.4487 17.9C94.222 18.3067 93.8953 18.61 93.4687 18.81C93.0487 19.0033 92.5453 19.1 91.9587 19.1ZM98.7276 19.1C98.1076 19.1 97.5876 19.01 97.1676 18.83C96.7542 18.6433 96.4376 18.4033 96.2176 18.11C96.0042 17.81 95.8909 17.4967 95.8776 17.17C95.8776 17.11 95.8976 17.06 95.9376 17.02C95.9776 16.98 96.0276 16.96 96.0876 16.96H96.9776C97.0642 16.96 97.1276 16.98 97.1676 17.02C97.2142 17.0533 97.2542 17.0967 97.2876 17.15C97.3276 17.2767 97.4042 17.4033 97.5176 17.53C97.6309 17.65 97.7842 17.75 97.9776 17.83C98.1776 17.91 98.4276 17.95 98.7276 17.95C99.2076 17.95 99.5642 17.87 99.7976 17.71C100.038 17.55 100.158 17.3333 100.158 17.06C100.158 16.8667 100.094 16.7133 99.9676 16.6C99.8409 16.48 99.6442 16.3733 99.3776 16.28C99.1176 16.18 98.7709 16.0767 98.3376 15.97C97.8376 15.85 97.4176 15.7067 97.0776 15.54C96.7442 15.3667 96.4909 15.15 96.3176 14.89C96.1509 14.63 96.0676 14.3 96.0676 13.9C96.0676 13.5133 96.1709 13.17 96.3776 12.87C96.5909 12.57 96.8909 12.3333 97.2776 12.16C97.6709 11.9867 98.1376 11.9 98.6776 11.9C99.1109 11.9 99.4942 11.96 99.8276 12.08C100.161 12.1933 100.438 12.3467 100.658 12.54C100.878 12.7267 101.044 12.93 101.158 13.15C101.278 13.3633 101.341 13.5733 101.348 13.78C101.348 13.8333 101.328 13.8833 101.288 13.93C101.254 13.97 101.204 13.99 101.138 13.99H100.208C100.154 13.99 100.101 13.9767 100.048 13.95C99.9942 13.9233 99.9509 13.8733 99.9176 13.8C99.8776 13.5933 99.7476 13.4167 99.5276 13.27C99.3076 13.1233 99.0242 13.05 98.6776 13.05C98.3176 13.05 98.0276 13.1167 97.8076 13.25C97.5876 13.3833 97.4776 13.59 97.4776 13.87C97.4776 14.0567 97.5309 14.2133 97.6376 14.34C97.7509 14.46 97.9276 14.5667 98.1676 14.66C98.4142 14.7533 98.7376 14.8533 99.1376 14.96C99.7042 15.0867 100.168 15.2333 100.528 15.4C100.888 15.5667 101.151 15.78 101.318 16.04C101.484 16.2933 101.568 16.6167 101.568 17.01C101.568 17.45 101.448 17.8267 101.208 18.14C100.974 18.4467 100.644 18.6833 100.218 18.85C99.7909 19.0167 99.2942 19.1 98.7276 19.1Z" fill="white"/>
<defs>
<linearGradient id="paint0_linear_1_10574" x1="70.5" y1="0" x2="70.5" y2="32" gradientUnits="userSpaceOnUse">
<stop stop-color="#9C38FF"/>
<stop offset="1" stop-color="#572CD1"/>
</linearGradient>
</defs>
</svg>
