<svg width="181" height="34" viewBox="0 0 181 34" fill="none" xmlns="http://www.w3.org/2000/svg">
<path d="M8 0L18 5H2L8 0Z" fill="#3E1C9E"/>
<path d="M173.001 0L163.001 5H179.001L173.001 0Z" fill="#3E1C9E"/>
<path d="M8 0H173L168.715 24.234C172.775 27.4616 170.493 34 165.306 34H15.6938C10.5072 34 8.22502 27.4616 12.2851 24.234L8 0Z" fill="url(#paint0_linear_1_10323)"/>
<path d="M54.224 21C54.144 21 54.076 20.972 54.02 20.916C53.964 20.86 53.936 20.792 53.936 20.712V12.9C53.936 12.812 53.96 12.74 54.008 12.684C54.064 12.628 54.136 12.6 54.224 12.6H57.704C58.64 12.6 59.336 12.808 59.792 13.224C60.256 13.632 60.488 14.192 60.488 14.904C60.488 15.32 60.384 15.676 60.176 15.972C59.976 16.26 59.74 16.468 59.468 16.596C59.804 16.748 60.084 16.996 60.308 17.34C60.54 17.684 60.656 18.076 60.656 18.516C60.656 19.26 60.404 19.86 59.9 20.316C59.404 20.772 58.704 21 57.8 21H54.224ZM57.488 16.044C57.904 16.044 58.22 15.944 58.436 15.744C58.652 15.544 58.76 15.276 58.76 14.94C58.76 14.596 58.652 14.332 58.436 14.148C58.22 13.956 57.904 13.86 57.488 13.86H55.604V16.044H57.488ZM57.608 19.728C58.024 19.728 58.348 19.616 58.58 19.392C58.812 19.16 58.928 18.868 58.928 18.516C58.928 18.156 58.812 17.864 58.58 17.64C58.348 17.408 58.024 17.292 57.608 17.292H55.604V19.728H57.608ZM62.4506 21C62.3706 21 62.3026 20.972 62.2466 20.916C62.1906 20.86 62.1626 20.792 62.1626 20.712V12.9C62.1626 12.812 62.1866 12.74 62.2346 12.684C62.2906 12.628 62.3626 12.6 62.4506 12.6H67.7306C67.8186 12.6 67.8906 12.628 67.9466 12.684C68.0026 12.74 68.0306 12.812 68.0306 12.9V13.692C68.0306 13.78 68.0026 13.852 67.9466 13.908C67.8906 13.956 67.8186 13.98 67.7306 13.98H63.7826V16.104H67.4666C67.5546 16.104 67.6266 16.132 67.6826 16.188C67.7386 16.236 67.7666 16.304 67.7666 16.392V17.136C67.7666 17.224 67.7386 17.296 67.6826 17.352C67.6266 17.4 67.5546 17.424 67.4666 17.424H63.7826V19.62H67.8266C67.9146 19.62 67.9866 19.648 68.0426 19.704C68.0986 19.76 68.1266 19.832 68.1266 19.92V20.712C68.1266 20.8 68.0986 20.872 68.0426 20.928C67.9866 20.976 67.9146 21 67.8266 21H62.4506ZM72.5434 21.12C71.8314 21.12 71.2194 21.012 70.7074 20.796C70.1954 20.58 69.8074 20.296 69.5434 19.944C69.2794 19.592 69.1394 19.212 69.1234 18.804C69.1234 18.732 69.1474 18.672 69.1954 18.624C69.2434 18.576 69.3034 18.552 69.3754 18.552H70.4434C70.5394 18.552 70.6114 18.572 70.6594 18.612C70.7154 18.644 70.7674 18.7 70.8154 18.78C70.8954 19.052 71.0794 19.28 71.3674 19.464C71.6554 19.648 72.0474 19.74 72.5434 19.74C73.1114 19.74 73.5394 19.648 73.8274 19.464C74.1154 19.272 74.2594 19.008 74.2594 18.672C74.2594 18.448 74.1834 18.264 74.0314 18.12C73.8874 17.976 73.6674 17.852 73.3714 17.748C73.0834 17.644 72.6514 17.516 72.0754 17.364C71.1314 17.14 70.4394 16.844 69.9994 16.476C69.5674 16.1 69.3514 15.568 69.3514 14.88C69.3514 14.416 69.4754 14.004 69.7234 13.644C69.9794 13.284 70.3434 13 70.8154 12.792C71.2954 12.584 71.8514 12.48 72.4834 12.48C73.1394 12.48 73.7074 12.596 74.1874 12.828C74.6674 13.06 75.0314 13.352 75.2794 13.704C75.5354 14.048 75.6714 14.392 75.6874 14.736C75.6874 14.808 75.6634 14.868 75.6154 14.916C75.5674 14.964 75.5074 14.988 75.4354 14.988H74.3194C74.1514 14.988 74.0354 14.912 73.9714 14.76C73.9234 14.504 73.7634 14.292 73.4914 14.124C73.2194 13.948 72.8834 13.86 72.4834 13.86C72.0354 13.86 71.6834 13.944 71.4274 14.112C71.1714 14.28 71.0434 14.524 71.0434 14.844C71.0434 15.068 71.1074 15.252 71.2354 15.396C71.3634 15.54 71.5634 15.668 71.8354 15.78C72.1154 15.892 72.5154 16.016 73.0354 16.152C73.7394 16.312 74.2994 16.492 74.7154 16.692C75.1394 16.892 75.4514 17.144 75.6514 17.448C75.8514 17.752 75.9514 18.14 75.9514 18.612C75.9514 19.124 75.8074 19.572 75.5194 19.956C75.2394 20.332 74.8394 20.62 74.3194 20.82C73.8074 21.02 73.2154 21.12 72.5434 21.12ZM79.3689 21C79.2889 21 79.2209 20.972 79.1649 20.916C79.1089 20.86 79.0809 20.792 79.0809 20.712V14.076H76.8609C76.7809 14.076 76.7129 14.048 76.6569 13.992C76.6009 13.936 76.5729 13.868 76.5729 13.788V12.9C76.5729 12.812 76.5969 12.74 76.6449 12.684C76.7009 12.628 76.7729 12.6 76.8609 12.6H82.9809C83.0689 12.6 83.1409 12.628 83.1969 12.684C83.2529 12.74 83.2809 12.812 83.2809 12.9V13.788C83.2809 13.868 83.2529 13.936 83.1969 13.992C83.1409 14.048 83.0689 14.076 82.9809 14.076H80.7729V20.712C80.7729 20.792 80.7449 20.86 80.6889 20.916C80.6329 20.972 80.5609 21 80.4729 21H79.3689ZM87.2357 21C87.1557 21 87.0877 20.972 87.0317 20.916C86.9757 20.86 86.9477 20.792 86.9477 20.712V12.9C86.9477 12.812 86.9717 12.74 87.0197 12.684C87.0757 12.628 87.1477 12.6 87.2357 12.6H90.7157C91.6517 12.6 92.3477 12.808 92.8037 13.224C93.2677 13.632 93.4997 14.192 93.4997 14.904C93.4997 15.32 93.3957 15.676 93.1877 15.972C92.9877 16.26 92.7517 16.468 92.4797 16.596C92.8157 16.748 93.0957 16.996 93.3197 17.34C93.5517 17.684 93.6677 18.076 93.6677 18.516C93.6677 19.26 93.4157 19.86 92.9117 20.316C92.4157 20.772 91.7157 21 90.8117 21H87.2357ZM90.4997 16.044C90.9157 16.044 91.2317 15.944 91.4477 15.744C91.6637 15.544 91.7717 15.276 91.7717 14.94C91.7717 14.596 91.6637 14.332 91.4477 14.148C91.2317 13.956 90.9157 13.86 90.4997 13.86H88.6157V16.044H90.4997ZM90.6197 19.728C91.0357 19.728 91.3597 19.616 91.5917 19.392C91.8237 19.16 91.9397 18.868 91.9397 18.516C91.9397 18.156 91.8237 17.864 91.5917 17.64C91.3597 17.408 91.0357 17.292 90.6197 17.292H88.6157V19.728H90.6197ZM98.4023 21.12C97.3143 21.12 96.4663 20.844 95.8583 20.292C95.2503 19.74 94.9303 18.92 94.8983 17.832C94.8903 17.6 94.8863 17.26 94.8863 16.812C94.8863 16.356 94.8903 16.012 94.8983 15.78C94.9303 14.716 95.2583 13.9 95.8823 13.332C96.5063 12.764 97.3463 12.48 98.4023 12.48C99.4583 12.48 100.298 12.764 100.922 13.332C101.554 13.9 101.886 14.716 101.918 15.78C101.934 16.244 101.942 16.588 101.942 16.812C101.942 17.028 101.934 17.368 101.918 17.832C101.878 18.92 101.554 19.74 100.946 20.292C100.338 20.844 99.4903 21.12 98.4023 21.12ZM98.4023 19.74C98.9383 19.74 99.3663 19.58 99.6863 19.26C100.006 18.932 100.178 18.436 100.202 17.772C100.218 17.292 100.226 16.968 100.226 16.8C100.226 16.616 100.218 16.292 100.202 15.828C100.178 15.164 100.006 14.672 99.6863 14.352C99.3663 14.024 98.9383 13.86 98.4023 13.86C97.8743 13.86 97.4503 14.024 97.1303 14.352C96.8103 14.672 96.6383 15.164 96.6143 15.828C96.6063 16.06 96.6023 16.384 96.6023 16.8C96.6023 17.208 96.6063 17.532 96.6143 17.772C96.6383 18.436 96.8063 18.932 97.1183 19.26C97.4383 19.58 97.8663 19.74 98.4023 19.74ZM103.806 21C103.726 21 103.658 20.972 103.602 20.916C103.546 20.86 103.518 20.792 103.518 20.712V12.9C103.518 12.812 103.542 12.74 103.59 12.684C103.646 12.628 103.718 12.6 103.806 12.6H104.73C104.826 12.6 104.898 12.62 104.946 12.66C104.994 12.692 105.038 12.736 105.078 12.792L108.534 18.168V12.9C108.534 12.812 108.558 12.74 108.606 12.684C108.662 12.628 108.734 12.6 108.822 12.6H109.83C109.918 12.6 109.99 12.628 110.046 12.684C110.102 12.74 110.13 12.812 110.13 12.9V20.7C110.13 20.788 110.102 20.86 110.046 20.916C109.99 20.972 109.922 21 109.842 21H108.906C108.77 21 108.654 20.936 108.558 20.808L105.114 15.552V20.712C105.114 20.8 105.086 20.872 105.03 20.928C104.974 20.976 104.902 21 104.814 21H103.806ZM115.35 21.12C114.27 21.12 113.43 20.844 112.83 20.292C112.23 19.74 111.93 18.904 111.93 17.784V12.9C111.93 12.812 111.954 12.74 112.002 12.684C112.058 12.628 112.13 12.6 112.218 12.6H113.31C113.398 12.6 113.466 12.628 113.514 12.684C113.57 12.74 113.598 12.812 113.598 12.9V17.784C113.598 18.424 113.75 18.908 114.054 19.236C114.358 19.556 114.79 19.716 115.35 19.716C115.91 19.716 116.338 19.556 116.634 19.236C116.938 18.908 117.09 18.424 117.09 17.784V12.9C117.09 12.812 117.118 12.74 117.174 12.684C117.23 12.628 117.302 12.6 117.39 12.6H118.47C118.558 12.6 118.626 12.628 118.674 12.684C118.73 12.74 118.758 12.812 118.758 12.9V17.784C118.758 18.904 118.458 19.74 117.858 20.292C117.266 20.844 116.43 21.12 115.35 21.12ZM123.473 21.12C122.761 21.12 122.149 21.012 121.637 20.796C121.125 20.58 120.737 20.296 120.473 19.944C120.209 19.592 120.069 19.212 120.053 18.804C120.053 18.732 120.077 18.672 120.125 18.624C120.173 18.576 120.233 18.552 120.305 18.552H121.373C121.469 18.552 121.541 18.572 121.589 18.612C121.645 18.644 121.697 18.7 121.745 18.78C121.825 19.052 122.009 19.28 122.297 19.464C122.585 19.648 122.977 19.74 123.473 19.74C124.041 19.74 124.469 19.648 124.757 19.464C125.045 19.272 125.189 19.008 125.189 18.672C125.189 18.448 125.113 18.264 124.961 18.12C124.817 17.976 124.597 17.852 124.301 17.748C124.013 17.644 123.581 17.516 123.005 17.364C122.061 17.14 121.369 16.844 120.929 16.476C120.497 16.1 120.281 15.568 120.281 14.88C120.281 14.416 120.405 14.004 120.653 13.644C120.909 13.284 121.273 13 121.745 12.792C122.225 12.584 122.781 12.48 123.413 12.48C124.069 12.48 124.637 12.596 125.117 12.828C125.597 13.06 125.961 13.352 126.209 13.704C126.465 14.048 126.601 14.392 126.617 14.736C126.617 14.808 126.593 14.868 126.545 14.916C126.497 14.964 126.437 14.988 126.365 14.988H125.249C125.081 14.988 124.965 14.912 124.901 14.76C124.853 14.504 124.693 14.292 124.421 14.124C124.149 13.948 123.813 13.86 123.413 13.86C122.965 13.86 122.613 13.944 122.357 14.112C122.101 14.28 121.973 14.524 121.973 14.844C121.973 15.068 122.037 15.252 122.165 15.396C122.293 15.54 122.493 15.668 122.765 15.78C123.045 15.892 123.445 16.016 123.965 16.152C124.669 16.312 125.229 16.492 125.645 16.692C126.069 16.892 126.381 17.144 126.581 17.448C126.781 17.752 126.881 18.14 126.881 18.612C126.881 19.124 126.737 19.572 126.449 19.956C126.169 20.332 125.769 20.62 125.249 20.82C124.737 21.02 124.145 21.12 123.473 21.12Z" fill="white"/>
<defs>
<linearGradient id="paint0_linear_1_10323" x1="90.5" y1="0" x2="90.5" y2="34" gradientUnits="userSpaceOnUse">
<stop stop-color="#9C38FF"/>
<stop offset="1" stop-color="#572CD1"/>
</linearGradient>
</defs>
</svg>
