<svg viewBox="0 0 53 18" fill="none" xmlns="http://www.w3.org/2000/svg">
<g clip-path="url(#clip0_1_10462)">
<path d="M35.0806 6.12066L32.2852 17.6985H36.8206L39.728 5.63574L35.0806 6.12066Z" fill="white"/>
<path d="M50.0316 5.61296C48.6798 5.47787 46.5706 5.90231 45.5284 6.71186C45.5044 6.26888 45.4247 5.92076 45.3318 5.56445L41.3175 6.06548C41.4771 7.20767 41.3198 8.47514 40.9256 10.1806L39.127 17.6994H43.6623L45.5187 10.0281C45.9733 9.36263 46.6957 8.91767 47.3064 8.91767C48.0619 8.91767 48.2464 9.4817 48.012 10.407L46.2692 17.6994H50.8047L52.751 9.77933C53.2149 7.63247 52.5311 5.86298 50.0316 5.61296Z" fill="white"/>
<path d="M40.4723 2.36795C40.4723 1.12604 39.4079 0.114258 38.0466 0.114258C36.6603 0.114258 35.5215 1.12595 35.5215 2.36795C35.5215 3.60959 36.6356 4.62209 37.9722 4.62209C39.3581 4.62218 40.4723 3.60968 40.4723 2.36795Z" fill="#FFD300"/>
<path fill-rule="evenodd" clip-rule="evenodd" d="M29.5953 5.76134L28.1615 9.13949C27.631 10.4086 27.1658 11.6036 26.7575 12.7759L26.7017 5.76134H22.6089L19.2184 12.8348L19.5852 5.59961L15.0762 6.17255L15.9883 17.6994H19.9766C19.9766 17.6994 23.0018 11.48 23.2727 10.76L23.3131 17.6994H27.4051L34.1571 5.76134H29.5953Z" fill="white"/>
<path fill-rule="evenodd" clip-rule="evenodd" d="M10.1929 5.45999C9.01529 5.45999 8.13363 5.77454 7.61441 6.06938C8.35606 3.72623 8.5215 1.56344 8.5215 1.56344L8.52124 1.56371C8.55304 1.21262 8.56037 0.795021 8.5511 0.519531L3.79823 1.1084C3.85167 1.88537 3.73976 3.1136 3.12884 5.73782L0.835002 15.4087C0.730857 15.8715 0.470274 16.7507 0.261719 17.0743C1.69537 17.5603 3.33757 17.9999 6.04817 17.9999C7.5342 17.9999 8.70709 17.722 9.90622 17.0047C11.9654 15.7788 13.2367 13.5712 13.7628 11.4292C14.7465 7.42514 13.1382 5.45999 10.1929 5.45999ZM8.99391 11.6377C8.47248 13.8585 7.79461 14.8533 6.64786 14.8533C6.17873 14.8533 5.78768 14.7374 5.57939 14.5756L6.83027 9.27761C7.06498 9.06944 7.48209 8.69918 8.15996 8.69918C9.17641 8.69909 9.54113 9.27752 8.99391 11.6377Z" fill="white"/>
</g>
<defs>
<clipPath id="clip0_1_10462">
<rect width="53" height="18" fill="white"/>
</clipPath>
</defs>
</svg>
