<svg viewBox="0 0 14 14" fill="none" xmlns="http://www.w3.org/2000/svg">
<path d="M7.38684 11.8125C7.65401 11.8125 7.90428 11.6818 8.05696 11.4626L10.5256 7.91758C10.9891 7.2519 11.1957 6.44077 11.1071 5.63444L10.9173 3.90695C10.8362 3.16874 10.2566 2.58401 9.51919 2.49628L8.28425 2.34937C7.3412 2.23719 6.38501 2.33443 5.48385 2.63417C4.85307 2.84397 4.34784 3.32273 4.10443 3.94132L3.10774 6.47419C3.05953 6.59671 3.02621 6.72457 3.0085 6.85503C2.85432 7.99088 3.88065 8.93187 4.99888 8.6799L7.27267 8.16755L6.59608 10.792C6.46284 11.3089 6.85311 11.8125 7.38684 11.8125Z" fill="#FF4C34"/>
</svg>
