<svg viewBox="0 0 17 17" fill="none" xmlns="http://www.w3.org/2000/svg">
<path d="M8.5443 1.46278C8.33915 1.37283 8.13708 1.43575 8.0071 1.56813C7.88083 1.69672 7.81768 1.89298 7.86196 2.09086C7.93184 2.40319 7.96875 2.72814 7.96875 3.06192C7.96875 3.82398 7.77669 4.35771 7.44621 4.80017C7.11027 5.24995 6.62397 5.61613 6.00997 6.02929C6.00032 6.03578 5.99133 6.04321 5.98313 6.05147L5.90877 6.12641C4.59138 6.97751 3.71875 8.45942 3.71875 10.1453C3.71875 12.7859 5.85939 14.9265 8.5 14.9265C11.1406 14.9265 13.2812 12.7859 13.2812 10.1453C13.2812 9.36995 13.0966 8.63726 12.7687 7.98926C12.742 7.93654 12.6908 7.9006 12.6321 7.89344C12.5735 7.88627 12.5151 7.90882 12.4766 7.95357C12.4266 8.01147 12.3777 8.06863 12.3295 8.12493C11.7074 8.85182 11.2053 9.43841 10.176 9.70044C10.1323 9.71158 10.1051 9.7033 10.0858 9.69125C10.0631 9.67706 10.0382 9.64874 10.0212 9.60349C9.98571 9.50919 10.0009 9.38894 10.0736 9.31012C10.6241 8.71328 11.0152 7.90309 11.155 6.75055C11.4167 4.59162 10.4355 2.29195 8.5443 1.46278Z" fill="url(#paint0_linear_1_10451)"/>
<defs>
<linearGradient id="paint0_linear_1_10451" x1="8.5" y1="1.42065" x2="8.5" y2="14.9265" gradientUnits="userSpaceOnUse">
<stop stop-color="#FFC736"/>
<stop offset="1" stop-color="#FF630C"/>
</linearGradient>
</defs>
</svg>
