<svg viewBox="0 0 14 14" fill="none" xmlns="http://www.w3.org/2000/svg">
<path d="M6.61316 2.1875C6.34599 2.1875 6.09572 2.3182 5.94304 2.53745L3.47445 6.08242C3.01088 6.7481 2.80427 7.55923 2.89288 8.36556L3.08271 10.093C3.16383 10.8313 3.74335 11.416 4.48081 11.5037L5.71575 11.6506C6.6588 11.7628 7.61499 11.6656 8.51615 11.3658C9.14693 11.156 9.65216 10.6773 9.89557 10.0587L10.8923 7.52581C10.9405 7.40329 10.9738 7.27543 10.9915 7.14497C11.1457 6.00912 10.1193 5.06813 9.00112 5.3201L6.72733 5.83245L7.40392 3.20795C7.53716 2.69112 7.14689 2.18749 6.61316 2.1875Z" fill="#53AF1B"/>
</svg>
