<svg viewBox="0 0 14 14" fill="none" xmlns="http://www.w3.org/2000/svg">
<g clip-path="url(#clip0_1_10476)">
<path d="M13.1834 1.22505C13.125 1.05005 12.95 0.875053 12.775 0.81672C10.325 0.175053 7.81672 0.933387 6.12505 2.91672L5.48338 3.67505L3.90838 3.32505C3.15005 3.03339 2.33338 3.38339 1.98338 4.08339L0.700049 6.35839C0.583382 6.53339 0.583382 6.70839 0.700049 6.88339C0.758382 7.05839 0.933382 7.17505 1.10838 7.23339L2.91672 7.64172C2.74172 8.10839 2.68338 8.57505 2.56672 9.04172C2.56672 9.21672 2.62505 9.39172 2.74172 9.50839L4.55005 11.3167C4.66672 11.4334 4.78338 11.4917 4.95838 11.4917H5.01672C5.54172 11.4334 6.00838 11.3751 6.47505 11.2001L6.82505 12.9501C6.88338 13.1251 7.00005 13.3001 7.17505 13.3584C7.23338 13.4167 7.35005 13.4167 7.40838 13.4167C7.52505 13.4167 7.58338 13.4167 7.70005 13.3584L9.97505 12.0751C10.6167 11.7251 10.9667 10.9084 10.7917 10.1501L10.3834 8.51672L11.0834 7.87505C13.0084 6.24172 13.825 3.61672 13.1834 1.22505ZM4.25838 5.13339C3.90838 5.60005 3.55838 6.06672 3.32505 6.53339L2.10005 6.24172L2.97505 4.66672C3.09172 4.43339 3.32505 4.37505 3.61672 4.43339L4.60838 4.66672L4.25838 5.13339ZM9.33338 11.0251L7.75838 11.9001L7.52505 10.7334C8.05005 10.5001 8.51672 10.1501 8.92505 9.80005L9.33338 9.39172L9.56672 10.3834C9.68338 10.6751 9.50838 10.9667 9.33338 11.0251ZM9.74172 5.13339C9.27505 5.13339 8.86672 4.72505 8.86672 4.25839C8.86672 3.79172 9.27505 3.38339 9.74172 3.38339C10.2084 3.38339 10.6167 3.79172 10.6167 4.25839C10.6167 4.72505 10.2667 5.13339 9.74172 5.13339Z" fill="#0079F0"/>
</g>
<defs>
<clipPath id="clip0_1_10476">
<rect width="14" height="14" fill="white"/>
</clipPath>
</defs>
</svg>
