<svg width="17" height="17" viewBox="0 0 17 17" fill="none" xmlns="http://www.w3.org/2000/svg">
<path d="M15.5834 7.15429C15.6542 6.80012 15.3709 6.37512 15.0167 6.37512L10.9792 5.80845L9.13758 2.12512C9.06675 1.98345 8.99591 1.91262 8.85425 1.84179C8.50008 1.62929 8.07508 1.77095 7.86258 2.12512L6.09175 5.80845L2.05425 6.37512C1.84175 6.37512 1.70008 6.44595 1.62925 6.58762C1.34591 6.87095 1.34591 7.29595 1.62925 7.57929L4.53341 10.4126L3.82508 14.4501C3.82508 14.5918 3.82508 14.7335 3.89591 14.8751C4.10841 15.2293 4.53341 15.371 4.88758 15.1585L8.50008 13.246L12.1126 15.1585C12.1834 15.2293 12.3251 15.2293 12.4667 15.2293C12.5376 15.2293 12.5376 15.2293 12.6084 15.2293C12.9626 15.1585 13.2459 14.8043 13.1751 14.3793L12.4667 10.3418L15.3709 7.50845C15.5126 7.43762 15.5834 7.29595 15.5834 7.15429Z" fill="#FF922E"/>
</svg>
